<svg width="33" height="34" viewBox="0 0 33 34" fill="none" xmlns="http://www.w3.org/2000/svg">
<path fill-rule="evenodd" clip-rule="evenodd" d="M14.2964 1.65025C15.2144 2.51343 15.0029 3.83099 14.5657 4.83488L14.565 4.83659C13.9025 6.35092 13.5382 8.01116 13.5517 9.76723L13.5517 9.77116C13.5787 16.2882 18.9959 21.8481 25.63 22.1194L25.6308 22.1195C26.6104 22.1603 27.5467 22.0923 28.4559 21.9296C29.0528 21.8209 29.6337 21.8026 30.1537 21.9239C30.6838 22.0475 31.2104 22.335 31.5368 22.869C31.8617 23.4007 31.8786 23.998 31.7541 24.5221C31.6314 25.0384 31.3605 25.5482 31.0032 26.0323C27.8708 30.3179 22.6562 33.0315 16.8365 32.7791L16.8358 32.7791C8.57677 32.4159 1.66549 25.8094 1.09377 17.6403C0.571427 10.399 4.8688 4.09239 11.1155 1.4576C12.1181 1.03271 13.4126 0.8192 14.2964 1.65025ZM12.7261 3.29522C12.5786 3.2993 12.3306 3.34497 11.9779 3.49449L11.976 3.49533C6.54435 5.78593 2.84977 11.2461 3.30008 17.4822L3.30026 17.4847C3.79091 24.5038 9.76772 30.2542 16.933 30.5693C21.9948 30.7885 26.5116 28.4304 29.2189 24.725L29.2224 24.7203C29.4384 24.4279 29.5425 24.2077 29.5868 24.0659C29.4428 24.0445 29.2036 24.0416 28.8506 24.106L28.847 24.1067C27.7805 24.2977 26.6822 24.3771 25.5388 24.3295C17.7519 24.0106 11.3728 17.5091 11.3398 9.78223C11.3241 7.70533 11.7559 5.73895 12.5381 3.9509C12.6729 3.641 12.7174 3.42492 12.7261 3.29522ZM12.8446 3.30429C12.8445 3.30434 12.8433 3.30401 12.8411 3.30313C12.8435 3.30379 12.8446 3.30423 12.8446 3.30429ZM29.6144 23.9323C29.6142 23.9304 29.6142 23.9293 29.6142 23.9293C29.6143 23.9292 29.6144 23.9302 29.6144 23.9323Z" fill="white"/>
</svg>
