<svg width="34" height="34" viewBox="0 0 34 34" fill="none" xmlns="http://www.w3.org/2000/svg">
<path d="M31.0475 29.1068L25.6203 23.7194C27.727 21.0907 28.7472 17.7541 28.4712 14.3958C28.1951 11.0374 26.6439 7.91255 24.1363 5.66369C21.6287 3.41482 18.3555 2.2129 14.9896 2.30508C11.6237 2.39725 8.42105 3.7765 6.04013 6.15924C3.6592 8.54197 2.28099 11.7471 2.18889 15.1155C2.09679 18.4839 3.29779 21.7597 5.54495 24.2691C7.79211 26.7786 10.9146 28.3311 14.2704 28.6073C17.6262 28.8836 20.9603 27.8626 23.587 25.7543L28.9703 31.1417C29.1063 31.279 29.2681 31.3879 29.4463 31.4622C29.6246 31.5365 29.8158 31.5748 30.0089 31.5748C30.202 31.5748 30.3932 31.5365 30.5715 31.4622C30.7498 31.3879 30.9116 31.279 31.0475 31.1417C31.3112 30.8688 31.4586 30.5039 31.4586 30.1243C31.4586 29.7446 31.3112 29.3798 31.0475 29.1068ZM15.3803 25.7543C13.355 25.7543 11.3752 25.1533 9.69124 24.0272C8.00727 22.9012 6.69478 21.3007 5.91974 19.4282C5.14469 17.5556 4.9419 15.4951 5.33702 13.5073C5.73213 11.5194 6.7074 9.69338 8.1395 8.2602C9.57159 6.82702 11.3962 5.85101 13.3826 5.45559C15.3689 5.06018 17.4279 5.26312 19.299 6.03875C21.1701 6.81439 22.7694 8.12788 23.8946 9.81312C25.0198 11.4984 25.6203 13.4797 25.6203 15.5065C25.6203 18.2244 24.5415 20.831 22.6211 22.7528C20.7007 24.6746 18.0961 25.7543 15.3803 25.7543Z" fill="#111111"/>
</svg>
