<svg width="34" height="34" viewBox="0 0 34 34" fill="none" xmlns="http://www.w3.org/2000/svg">
<g clip-path="url(#clip0_18_1355)">
<path fill-rule="evenodd" clip-rule="evenodd" d="M17.1397 8.43598C12.4444 8.43598 8.63819 12.2422 8.63819 16.9375C8.63819 21.6327 12.4444 25.4389 17.1397 25.4389C21.8349 25.4389 25.6411 21.6327 25.6411 16.9375C25.6411 12.2422 21.8349 8.43598 17.1397 8.43598ZM6.42042 16.9375C6.42042 11.0174 11.2196 6.21821 17.1397 6.21821C23.0597 6.21821 27.8589 11.0174 27.8589 16.9375C27.8589 22.8575 23.0597 27.6567 17.1397 27.6567C11.2196 27.6567 6.42042 22.8575 6.42042 16.9375Z" fill="#111111"/>
<path fill-rule="evenodd" clip-rule="evenodd" d="M17.1397 0.673767C17.9562 0.673767 18.6182 1.33572 18.6182 2.15228V2.27057C18.6182 3.08713 17.9562 3.74908 17.1397 3.74908C16.3231 3.74908 15.6611 3.08713 15.6611 2.27057V2.15228C15.6611 1.33572 16.3231 0.673767 17.1397 0.673767ZM5.53758 5.33537C6.11498 4.75798 7.05113 4.75798 7.62852 5.33537L7.82073 5.52758C8.39813 6.10498 8.39813 7.04112 7.82073 7.61852C7.24333 8.19592 6.30719 8.19592 5.72979 7.61852L5.53758 7.42631C4.96019 6.84892 4.96019 5.91277 5.53758 5.33537ZM28.7417 5.33537C29.3191 5.91277 29.3191 6.84891 28.7417 7.42631L28.5495 7.61852C27.9721 8.19592 27.036 8.19592 26.4586 7.61852C25.8812 7.04113 25.8812 6.10498 26.4586 5.52758L26.6508 5.33538C27.2282 4.75798 28.1643 4.75798 28.7417 5.33537ZM0.875977 16.9375C0.875977 16.1209 1.53793 15.4589 2.35449 15.4589H2.47277C3.28934 15.4589 3.95129 16.1209 3.95129 16.9375C3.95129 17.754 3.28934 18.416 2.47277 18.416H2.35449C1.53793 18.416 0.875977 17.754 0.875977 16.9375ZM30.328 16.9375C30.328 16.1209 30.99 15.4589 31.8066 15.4589H31.9248C32.7414 15.4589 33.4034 16.1209 33.4034 16.9375C33.4034 17.754 32.7414 18.416 31.9248 18.416H31.8066C30.99 18.416 30.328 17.754 30.328 16.9375ZM7.82073 26.2564C8.39813 26.8338 8.39813 27.7699 7.82073 28.3473L7.62852 28.5395C7.05112 29.1169 6.11498 29.1169 5.53758 28.5395C4.96019 27.9621 4.96019 27.026 5.53759 26.4486L5.72979 26.2564C6.30719 25.679 7.24334 25.679 7.82073 26.2564ZM26.4586 26.2564C27.036 25.679 27.9721 25.679 28.5495 26.2564L28.7417 26.4486C29.3191 27.026 29.3191 27.9621 28.7417 28.5395C28.1644 29.1169 27.2282 29.1169 26.6508 28.5395L26.4586 28.3473C25.8812 27.7699 25.8812 26.8338 26.4586 26.2564ZM17.1397 30.1258C17.9562 30.1258 18.6182 30.7878 18.6182 31.6043V31.7226C18.6182 32.5392 17.9562 33.2011 17.1397 33.2011C16.3231 33.2011 15.6611 32.5392 15.6611 31.7226V31.6043C15.6611 30.7878 16.3231 30.1258 17.1397 30.1258Z" fill="#111111"/>
</g>
<defs>
<clipPath id="clip0_18_1355">
<rect width="32.5274" height="32.5274" fill="white" transform="translate(0.875977 0.673767)"/>
</clipPath>
</defs>
</svg>
